<?xml version="1.0" encoding="utf-8"?>
<!-- Generator: Adobe Illustrator 19.2.1, SVG Export Plug-In . SVG Version: 6.00 Build 0)  -->
<svg version="1.1" xmlns="http://www.w3.org/2000/svg" xmlns:xlink="http://www.w3.org/1999/xlink" x="0px" y="0px"
	 viewBox="0 0 600 800" style="enable-background:new 0 0 600 800;" xml:space="preserve">
<style type="text/css">
	.st0{font-family:'HelveticaNeue-Bold';}
	.st1{font-size:145px;}
	.st2{font-family:'HelveticaNeue-Light';}
	.st3{font-size:124px;}
	.st4{font-size:36px;}
	.st5{font-family:'HelveticaNeue-Medium';}
	.st6{font-family:'HelveticaNeue-Thin';}
	.st7{fill:#FFFFFF;stroke:#000000;stroke-width:3;stroke-miterlimit:10;}
	.st8{fill:none;stroke:#000000;stroke-width:3;stroke-miterlimit:10;}
	.st9{font-size:18px;}
	.st10{font-size:78px;}
	.st11{font-size:58px;}
	.st12{fill:none;stroke:#000000;stroke-width:2;stroke-miterlimit:10;}
	.st13{font-size:48px;}
	.st14{font-family:'HelveticaNeue-CondensedBold';}
	.st15{font-size:24px;}
	.st16{font-size:53px;}
	.st17{display:none;}
</style>
<g id="svg8378" inkscape:version="0.91 r13725" sodipodi:docname="Template.svg" xmlns:cc="http://creativecommons.org/ns#" xmlns:dc="http://purl.org/dc/elements/1.1/" xmlns:inkscape="http://www.inkscape.org/namespaces/inkscape" xmlns:osb="http://www.openswatchbook.org/uri/2009/osb" xmlns:rdf="http://www.w3.org/1999/02/22-rdf-syntax-ns#" xmlns:sodipodi="http://sodipodi.sourceforge.net/DTD/sodipodi-0.dtd" xmlns:svg="http://www.w3.org/2000/svg">
	<text transform="matrix(1 0 0 1 88.6203 183.9874)" class="st0 st1">98.6</text>
	<text transform="matrix(1 0 0 1 76.9443 298.2676)" class="st2 st3">72.9</text>
	<text transform="matrix(1 0 0 1 359.7139 38.2488)" class="st2 st4">06:32</text>
	<text transform="matrix(1 0 0 1 15.9639 38.8514)" class="st5 st4">15:49</text>
	<text transform="matrix(1 0 0 1 126.9644 38.8514)" class="st6 st4">12/25/16</text>
	<text transform="matrix(1 0 0 1 501.6848 38.2489)" class="st2 st4">20:32</text>
	<g>
		<rect x="347.6" y="228.8" width="5.5" height="1.5"/>
		<rect x="347.6" y="242.9" width="5.5" height="1.5"/>
		<rect x="347.6" y="257.1" width="5.5" height="1.5"/>
		<path d="M360.7,270.3V222c0-5.7-4.6-10.4-10.4-10.4c-5.7,0-10.8,4.6-10.8,10.4v48.7c-3.6,3.1-5.9,7.6-5.9,12.7
			c0,9.2,7.5,16.6,16.6,16.6c9.2,0,16.6-7.5,16.6-16.6C367,278.1,364.5,273.4,360.7,270.3z M350.4,294.4c-6.1,0-11-4.9-11-11
			c0-4.1,2.3-7.6,5.6-9.5V224c0-3,2.5-5.4,5.5-5.4s5.5,2.4,5.5,5.4v49.9c3.3,1.9,5.5,5.4,5.5,9.5
			C361.4,289.5,356.5,294.4,350.4,294.4z"/>
		<path d="M353.3,276.1v-10.7h-5.9v10.7c-2.9,1.2-4.9,4-4.9,7.2c0,4.3,3.5,7.8,7.8,7.8c4.3,0,7.8-3.5,7.8-7.8
			C358.2,280.1,356.2,277.3,353.3,276.1z"/>
	</g>
	<line class="st7" x1="0" y1="52" x2="600" y2="52"/>
	<path d="M492.1,29.6c-0.6,0-1.3,0-2,0.3c-0.7-4.8-4.9-8.4-9.7-8.4c-1,0-1.9,0.2-2.8,0.5c0-0.5,0.1-0.9,0.1-1.4
		c0-5-3.2-10.1-7.7-12.5c-0.4-0.2-0.7-0.1-1,0.1c-0.3,0.3-0.4,0.6-0.3,1c0,0,0.8,2.1,0.8,4.2c0,5.9-5.4,10.8-11.7,10.8
		c-2.9,0-5.9-1.6-5.9-1.7c-0.3-0.2-0.7-0.2-1,0.1c-0.3,0.2-0.5,0.5-0.4,0.9c0.8,3.2,3,6.2,5.9,8.2c-1.4,1.5-2.3,3.5-2.3,5.7
		c0,4.1,3.3,7.7,7.2,7.7h30.7c3.9,0,7.2-3.6,7.2-7.7C499.4,33.1,496,29.6,492.1,29.6z M453.1,25c1.3,0.5,3,1,4.8,1
		c7.3,0,13.5-5.8,13.5-12.6c0-0.8-0.1-1.6-0.3-2.3c2.9,2.3,4.8,6,4.8,9.6c0,0.7-0.1,1.4-0.2,2.1c-1.4,0.7-2.5,1.7-3.4,3
		c-0.8-0.4-1.7-0.6-2.7-0.6c-3,0-5.4,2-6.1,4.8c-0.6-0.1-1.3-0.2-2-0.2c-1.3,0-2.3,0.4-3.4,0.9C455.9,29.2,454.1,27.2,453.1,25z
		 M492.1,43.1h-30.7c-2.9,0-5.4-2.7-5.4-5.9c0-3.2,2.5-5.9,5.4-5.9c0.8,0,1.6,0.2,2.3,0.5c0.3,0.1,0.6,0.1,0.8,0
		c0.3-0.2,0.5-0.5,0.5-0.7c0.1-2.3,2.1-4.2,4.5-4.2c0.9,0,1.8,0.3,2.5,0.7c0.2,0.1,0.5,0.1,0.7,0.1c0.3-0.1,0.5-0.2,0.5-0.5
		c1.4-2.5,4.2-4.1,7-4.1c4.3,0,7.9,3.6,8.1,7.9c0,0.4,0.2,0.6,0.5,0.8c0.3,0.2,0.6,0.1,0.9-0.1c0.5-0.4,1.1-0.5,2.2-0.5
		c2.9,0,5.4,2.7,5.4,5.9S495,43.1,492.1,43.1z"/>
	<g>
		<path d="M344.1,35.8h-8.4c0.1-0.7,0.1-1.3,0.1-2c0-8.8-7.1-15.9-15.9-15.9c-8.8,0-15.9,7.1-15.9,15.9c0,0.7,0,1.3,0.1,2h-8.7
			c-0.4,0-0.7,0.3-0.7,0.7c0,0.4,0.3,0.7,0.7,0.7h48.7c0.4,0,0.7-0.3,0.7-0.7C344.7,36.1,344.4,35.8,344.1,35.8z M305.4,35.8
			c-0.1-0.7-0.1-1.3-0.1-2c0-8,6.5-14.6,14.6-14.6c8,0,14.6,6.5,14.6,14.6c0,0.7,0,1.3-0.1,2H305.4z"/>
		<path d="M339.5,39.7h-39.9c-0.4,0-0.7,0.3-0.7,0.7c0,0.4,0.3,0.7,0.7,0.7h39.9c0.4,0,0.7-0.3,0.7-0.7
			C340.1,40,339.8,39.7,339.5,39.7z"/>
		<path d="M332.5,43.7H307c-0.4,0-0.7,0.3-0.7,0.7c0,0.4,0.3,0.7,0.7,0.7h25.5c0.4,0,0.7-0.3,0.7-0.7
			C333.1,44,332.8,43.7,332.5,43.7z"/>
		<path d="M319.7,16.1c0.4,0,0.7-0.3,0.7-0.7V8.7c0-0.4-0.3-0.7-0.7-0.7c-0.4,0-0.7,0.3-0.7,0.7v6.8
			C319.1,15.8,319.4,16.1,319.7,16.1z"/>
		<path d="M345,31.2h-5.9c-0.4,0-0.7,0.3-0.7,0.7c0,0.4,0.3,0.7,0.7,0.7h5.9c0.4,0,0.7-0.3,0.7-0.7C345.7,31.5,345.4,31.2,345,31.2z
			"/>
		<path d="M301,31.9c0-0.4-0.3-0.7-0.7-0.7h-5.9c-0.4,0-0.7,0.3-0.7,0.7s0.3,0.7,0.7,0.7h5.9C300.7,32.5,301,32.2,301,31.9z"/>
		<path d="M333.1,21.4c0.2,0,0.3-0.1,0.5-0.2l4.8-4.8c0.3-0.3,0.3-0.7,0-0.9c-0.3-0.3-0.7-0.3-0.9,0l-4.8,4.8
			c-0.3,0.3-0.3,0.7,0,0.9C332.8,21.3,333,21.4,333.1,21.4z"/>
		<path d="M306,21.2c0.1,0.1,0.3,0.2,0.5,0.2s0.3-0.1,0.5-0.2c0.3-0.3,0.3-0.7,0-0.9l-4.8-4.8c-0.3-0.3-0.7-0.3-0.9,0
			c-0.3,0.3-0.3,0.7,0,0.9L306,21.2z"/>
		<path d="M312.2,16.9c0.1,0.2,0.3,0.4,0.6,0.4c0.1,0,0.2,0,0.3-0.1c0.3-0.2,0.5-0.6,0.3-0.9l-2.1-4.2c-0.2-0.3-0.6-0.5-0.9-0.3
			c-0.3,0.2-0.5,0.6-0.3,0.9L312.2,16.9z"/>
		<path d="M326.6,17.2c0.1,0,0.2,0.1,0.3,0.1c0.2,0,0.5-0.1,0.6-0.4l2.1-4.2c0.2-0.3,0-0.7-0.3-0.9c-0.3-0.2-0.7,0-0.9,0.3l-2.1,4.2
			C326.1,16.7,326.2,17.1,326.6,17.2z"/>
		<path d="M336.7,26.4c0.1,0.3,0.4,0.4,0.6,0.4c0.1,0,0.2,0,0.2,0l4.4-1.6c0.3-0.1,0.5-0.5,0.4-0.8c-0.1-0.3-0.5-0.5-0.8-0.4
			l-4.4,1.6C336.8,25.7,336.6,26.1,336.7,26.4z"/>
		<path d="M297.7,25.2l4.4,1.6c0.1,0,0.1,0,0.2,0c0.3,0,0.5-0.2,0.6-0.4c0.1-0.3-0.1-0.7-0.4-0.8l-4.4-1.6c-0.3-0.1-0.7,0.1-0.8,0.4
			C297.2,24.7,297.4,25.1,297.7,25.2z"/>
	</g>
	<line class="st8" x1="388" y1="52" x2="388" y2="628"/>
	<line class="st8" x1="388" y1="314" x2="0" y2="314"/>
	<text transform="matrix(1 0 0 1 8 73.4258)" class="st6 st9">Exterior Temp (°F)</text>
	<text transform="matrix(1 0 0 1 396 189.4258)" class="st6 st9">Grayboat Temp (°F)</text>
	<text transform="matrix(1 0 0 1 8 205.4259)" class="st6 st9">Interior Temp (°F)</text>
	<text transform="matrix(1 0 0 1 440.2119 251.6137)" class="st5 st10">46.1</text>
	<text transform="matrix(1 0 0 1 396 273.426)" class="st6 st9">Downstairs Temp (°F)</text>
	<text transform="matrix(1 0 0 1 440.2119 335.614)" class="st5 st10">69.3</text>
	<text transform="matrix(1 0 0 1 396 357.4258)" class="st6 st9">Dew Point (°F)</text>
	<text transform="matrix(1 0 0 1 440.2119 419.6137)" class="st5 st10">86.2</text>
	<text transform="matrix(1 0 0 1 396 443.4256)" class="st6 st9">Relitative Humidity (%)</text>
	<text transform="matrix(1 0 0 1 396.8438 505.6135)" class="st5 st10">50.67</text>
	<text transform="matrix(1 0 0 1 396 537.9193)" class="st6 st9">Pressure (inHg)</text>
	<text transform="matrix(1 0 0 1.1 446.8838 602.8476)" class="st5 st11">29.81</text>
	<text transform="matrix(1 0 0 1 396 75.4262)" class="st6 st9">Forcasted Hi &amp; Low</text>
	<text transform="matrix(1 0 0 1 394.6279 125.5298)" class="st0 st11">120</text>
	<text transform="matrix(1 0 0 1 493.9997 167.6878)" class="st0 st11">-95</text>
	<g>
		<path d="M440.1,576.7l-15.5-15.5c0,0,0,0,0-0.1c-0.6-0.6-1.2-0.9-2-1.1c0,0,0,0-0.1,0c-0.3-0.1-0.5-0.1-0.8-0.1c0,0,0,0,0,0h0
			c-0.3,0-0.5,0-0.8,0.1c0,0,0,0-0.1,0c-0.7,0.2-1.4,0.5-2,1.1c0,0,0,0,0,0.1l-15.5,15.5c-1.6,1.6-1.6,4.1,0,5.7
			c1.6,1.6,4.1,1.6,5.7,0l8.7-8.7V601c0,2.2,1.8,4,4,4s4-1.8,4-4v-27.3l8.7,8.7c1.6,1.6,4.1,1.6,5.7,0
			C441.7,580.8,441.7,578.3,440.1,576.7z"/>
	</g>
	<line class="st8" x1="0" y1="714" x2="600" y2="714"/>
	<g>
		<text transform="matrix(1 0 0 1 140.0638 463.8459)" class="st5 st10">5.2</text>
		<text transform="matrix(1 0 0 1 118.3802 533.8461)" class="st5 st10">66.8</text>
		<text transform="matrix(1 0 0 1 155.4142 399.9879)" class="st6 st9">Wind (mph)</text>
		<text transform="matrix(1 0 0 1 156.6021 551.3571)" class="st6 st9">Gust (mph)</text>
		<g>
			<path d="M214.4,338.7l-15.5-15.5c0,0,0,0,0-0.1c-0.6-0.6-1.2-0.9-2-1.1c0,0,0,0-0.1,0c-0.3-0.1-0.5-0.1-0.8-0.1c0,0,0,0,0,0h0
				c-0.3,0-0.5,0-0.8,0.1c0,0,0,0-0.1,0c-0.7,0.2-1.4,0.5-2,1.1c0,0,0,0,0,0.1l-15.5,15.5c-1.6,1.6-1.6,4.1,0,5.7s4.1,1.6,5.7,0
				l8.7-8.7V363c0,2.2,1.8,4,4,4s4-1.8,4-4v-27.3l8.7,8.7c1.6,1.6,4.1,1.6,5.7,0S215.9,340.3,214.4,338.7z"/>
		</g>
		<g>
			<path d="M177.6,603.3l15.5,15.5c0,0,0,0,0,0.1c0.6,0.6,1.2,0.9,2,1.1c0,0,0,0,0.1,0c0.3,0.1,0.5,0.1,0.8,0.1c0,0,0,0,0,0h0
				c0.3,0,0.5,0,0.8-0.1c0,0,0,0,0.1,0c0.7-0.2,1.4-0.5,2-1.1c0,0,0,0,0-0.1l15.5-15.5c1.6-1.6,1.6-4.1,0-5.7s-4.1-1.6-5.7,0
				l-8.7,8.7V579c0-2.2-1.8-4-4-4s-4,1.8-4,4v27.3l-8.7-8.7c-1.6-1.6-4.1-1.6-5.7,0C176.1,599.2,176.1,601.7,177.6,603.3z"/>
		</g>
		<g>
			<path d="M275.2,575h21.9c0,0,0,0,0.1,0c0.8,0,1.5-0.2,2.1-0.6c0,0,0,0,0.1,0c0.2-0.1,0.4-0.3,0.6-0.5c0,0,0,0,0,0c0,0,0,0,0,0
				c0.2-0.2,0.4-0.4,0.5-0.6c0,0,0,0,0-0.1c0.4-0.6,0.6-1.4,0.6-2.1c0,0,0,0,0-0.1V549c0-2.2-1.8-4-4-4c-2.2,0-4,1.8-4,4v12.3
				L273.8,542c-1.6-1.6-4.1-1.6-5.7,0c-1.6,1.6-1.6,4.1,0,5.7l19.3,19.3h-12.3c-2.2,0-4,1.8-4,4C271.2,573.2,273,575,275.2,575z"/>
		</g>
		<g>
			<path d="M116.8,365.8H94.9c0,0,0,0-0.1,0c-0.8,0-1.5,0.2-2.1,0.6c0,0,0,0-0.1,0c-0.2,0.1-0.4,0.3-0.6,0.5c0,0,0,0,0,0s0,0,0,0
				c-0.2,0.2-0.4,0.4-0.5,0.6c0,0,0,0,0,0.1c-0.4,0.6-0.6,1.4-0.6,2.1c0,0,0,0,0,0.1v21.9c0,2.2,1.8,4,4,4c2.2,0,4-1.8,4-4v-12.3
				l19.3,19.3c1.6,1.6,4.1,1.6,5.7,0s1.6-4.1,0-5.7l-19.3-19.3h12.3c2.2,0,4-1.8,4-4C120.8,367.6,119,365.8,116.8,365.8z"/>
		</g>
		<g>
			<path d="M301.2,391.8v-21.9c0,0,0,0,0-0.1c0-0.8-0.2-1.5-0.6-2.1c0,0,0,0,0-0.1c-0.1-0.2-0.3-0.4-0.5-0.6c0,0,0,0,0,0
				c0,0,0,0,0,0c-0.2-0.2-0.4-0.4-0.6-0.5c0,0,0,0-0.1,0c-0.6-0.4-1.4-0.6-2.1-0.6c0,0,0,0-0.1,0h-21.9c-2.2,0-4,1.8-4,4
				c0,2.2,1.8,4,4,4h12.3l-19.3,19.3c-1.6,1.6-1.6,4.1,0,5.7s4.1,1.6,5.7,0l19.3-19.3v12.3c0,2.2,1.8,4,4,4
				C299.4,395.8,301.2,394,301.2,391.8z"/>
		</g>
		<g>
			<path d="M90.7,550.4v21.9c0,0,0,0,0,0.1c0,0.8,0.2,1.5,0.6,2.1c0,0,0,0,0,0.1c0.1,0.2,0.3,0.4,0.5,0.6c0,0,0,0,0,0c0,0,0,0,0,0
				c0.2,0.2,0.4,0.4,0.6,0.5c0,0,0,0,0.1,0c0.6,0.4,1.4,0.6,2.1,0.6c0,0,0,0,0.1,0h21.9c2.2,0,4-1.8,4-4c0-2.2-1.8-4-4-4h-12.3
				l19.3-19.3c1.6-1.6,1.6-4.1,0-5.7c-1.6-1.6-4.1-1.6-5.7,0l-19.3,19.3v-12.3c0-2.2-1.8-4-4-4C92.5,546.4,90.7,548.2,90.7,550.4z"
				/>
		</g>
		<circle class="st8" cx="196" cy="471" r="149"/>
		<g>
			<path d="M328.3,489.4l15.5-15.5c0,0,0,0,0.1,0c0.6-0.6,0.9-1.2,1.1-2c0,0,0,0,0-0.1c0.1-0.3,0.1-0.5,0.1-0.8c0,0,0,0,0,0v0
				c0-0.3,0-0.5-0.1-0.8c0,0,0,0,0-0.1c-0.2-0.7-0.5-1.4-1.1-2c0,0,0,0-0.1,0l-15.5-15.5c-1.6-1.6-4.1-1.6-5.7,0s-1.6,4.1,0,5.7
				l8.7,8.7H304c-2.2,0-4,1.8-4,4c0,2.2,1.8,4,4,4h27.3l-8.7,8.7c-1.6,1.6-1.6,4.1,0,5.7C324.2,490.9,326.7,490.9,328.3,489.4z"/>
		</g>
		<g>
			<path d="M63.7,452.6l-15.5,15.5c0,0,0,0-0.1,0c-0.6,0.6-0.9,1.2-1.1,2c0,0,0,0,0,0.1c-0.1,0.3-0.1,0.5-0.1,0.8c0,0,0,0,0,0v0
				c0,0.3,0,0.5,0.1,0.8c0,0,0,0,0,0.1c0.2,0.7,0.5,1.4,1.1,2c0,0,0,0,0.1,0l15.5,15.5c1.6,1.6,4.1,1.6,5.7,0c1.6-1.6,1.6-4.1,0-5.7
				l-8.7-8.7H88c2.2,0,4-1.8,4-4c0-2.2-1.8-4-4-4H60.7l8.7-8.7c1.6-1.6,1.6-4.1,0-5.7C67.8,451.1,65.3,451.1,63.7,452.6z"/>
		</g>
		<line class="st12" x1="112.5" y1="471" x2="284.1" y2="471"/>
	</g>
	<text transform="matrix(1 0 0 1 471.9042 679.5577)" class="st2 st13">06:32</text>
	<text transform="matrix(1 0 0 1 517.5519 705.4993)" class="st14 st15">4.0</text>
	<text transform="matrix(1 0 0 1 259.9042 679.5577)" class="st2 st13">18:01</text>
	<text transform="matrix(1 0 0 1 301.112 705.4993)" class="st14 st15">-1.2</text>
	<text transform="matrix(1 0 0 1 66.275 690.9996)" class="st0 st16">-0.8</text>
	<line class="st8" x1="0" y1="628" x2="600" y2="628"/>
	<line class="st8" x1="505" y1="97" x2="483" y2="157.7"/>
	<g sketch:type="MSPage">
		<g transform="translate(-270.000000, -90.000000)" sketch:type="MSArtboardGroup">
			<path sketch:type="MSShapeGroup" d="M710,776.5c-0.7,0-1.2,0.5-1.2,1.2c0,3.3-2.7,6-6,6c-3.3,0-6-2.7-6-6c0-0.7-0.5-1.2-1.2-1.2
				c-0.7,0-1.2,0.5-1.2,1.2c0,3.3-2.7,6-6,6c-3.3,0-6-2.7-6-6c0-0.7-0.5-1.2-1.2-1.2s-1.2,0.5-1.2,1.2c0,3.3-2.7,6-6,6
				c-3.3,0-6-2.7-6-6c0-0.7-0.5-1.2-1.2-1.2s-1.2,0.5-1.2,1.2c0,4.6,3.7,8.3,8.3,8.3c3,0,5.7-1.6,7.1-4c1.5,2.4,4.1,4,7.1,4
				c3,0,5.7-1.6,7.1-4c1.5,2.4,4.1,4,7.1,4c3,0,5.7-1.6,7.1-4c1.5,2.4,4.1,4,7.1,4c4.6,0,8.3-3.7,8.3-8.3c0-0.7-0.5-1.2-1.2-1.2
				s-1.2,0.5-1.2,1.2c0,3.3-2.7,6-6,6c-3.3,0-6-2.7-6-6C711.2,777,710.7,776.5,710,776.5z M710,767c-0.7,0-1.2,0.5-1.2,1.2
				c0,3.3-2.7,6-6,6c-3.3,0-6-2.7-6-6c0-0.7-0.5-1.2-1.2-1.2c-0.7,0-1.2,0.5-1.2,1.2c0,3.3-2.7,6-6,6c-3.3,0-6-2.7-6-6
				c0-0.7-0.5-1.2-1.2-1.2s-1.2,0.5-1.2,1.2c0,3.3-2.7,6-6,6c-3.3,0-6-2.7-6-6c0-0.7-0.5-1.2-1.2-1.2s-1.2,0.5-1.2,1.2
				c0,4.6,3.7,8.3,8.3,8.3c3,0,5.7-1.6,7.1-4c1.5,2.4,4.1,4,7.1,4c3,0,5.7-1.6,7.1-4c1.5,2.4,4.1,4,7.1,4c3,0,5.7-1.6,7.1-4
				c1.5,2.4,4.1,4,7.1,4c4.6,0,8.3-3.7,8.3-8.3c0-0.7-0.5-1.2-1.2-1.2s-1.2,0.5-1.2,1.2c0,3.3-2.7,6-6,6c-3.3,0-6-2.7-6-6
				C711.2,767.5,710.7,767,710,767z M710,757.4c-0.7,0-1.2,0.5-1.2,1.2c0,3.3-2.7,6-6,6c-3.3,0-6-2.7-6-6c0-0.7-0.5-1.2-1.2-1.2
				c-0.7,0-1.2,0.5-1.2,1.2c0,3.3-2.7,6-6,6c-3.3,0-6-2.7-6-6c0-0.7-0.5-1.2-1.2-1.2s-1.2,0.5-1.2,1.2c0,3.3-2.7,6-6,6
				c-3.3,0-6-2.7-6-6c0-0.7-0.5-1.2-1.2-1.2s-1.2,0.5-1.2,1.2c0,4.6,3.7,8.3,8.3,8.3c3,0,5.7-1.6,7.1-4c1.5,2.4,4.1,4,7.1,4
				c3,0,5.7-1.6,7.1-4c1.5,2.4,4.1,4,7.1,4c3,0,5.7-1.6,7.1-4c1.5,2.4,4.1,4,7.1,4c4.6,0,8.3-3.7,8.3-8.3c0-0.7-0.5-1.2-1.2-1.2
				s-1.2,0.5-1.2,1.2c0,3.3-2.7,6-6,6c-3.3,0-6-2.7-6-6C711.2,758,710.7,757.4,710,757.4z M697,751.5c0,0.7-0.5,1.2-1.2,1.2
				c-0.7,0-1.2-0.5-1.2-1.2v-11.4l-2.7,2.7c-0.5,0.5-1.2,0.5-1.7,0c-0.5-0.5-0.5-1.2,0-1.7l4.8-4.8c0.5-0.5,1.2-0.5,1.7,0l4.8,4.8
				c0.5,0.5,0.5,1.2,0,1.7c-0.5,0.5-1.2,0.5-1.7,0l-2.7-2.7V751.5z"/>
		</g>
	</g>
	<g sketch:type="MSPage">
		<g transform="translate(-315.000000, -90.000000)" sketch:type="MSArtboardGroup">
			<path sketch:type="MSShapeGroup" d="M547.8,774.9c-0.8,0-1.4,0.6-1.4,1.4c0,3.8-3.1,6.9-6.9,6.9c-3.8,0-6.9-3.1-6.9-6.9
				c0-0.8-0.6-1.4-1.4-1.4s-1.4,0.6-1.4,1.4c0,3.8-3.1,6.9-6.9,6.9c-3.8,0-6.9-3.1-6.9-6.9c0-0.8-0.6-1.4-1.4-1.4
				c-0.8,0-1.4,0.6-1.4,1.4c0,3.8-3.1,6.9-6.9,6.9c-3.8,0-6.9-3.1-6.9-6.9c0-0.8-0.6-1.4-1.4-1.4s-1.4,0.6-1.4,1.4
				c0,5.4,4.4,9.7,9.7,9.7c3.5,0,6.6-1.9,8.3-4.7c1.7,2.8,4.8,4.7,8.3,4.7c3.5,0,6.6-1.9,8.3-4.7c1.7,2.8,4.8,4.7,8.3,4.7
				c3.5,0,6.6-1.9,8.3-4.7c1.7,2.8,4.8,4.7,8.3,4.7c5.4,0,9.7-4.4,9.7-9.7c0-0.8-0.6-1.4-1.4-1.4c-0.8,0-1.4,0.6-1.4,1.4
				c0,3.8-3.1,6.9-6.9,6.9s-6.9-3.1-6.9-6.9C549.2,775.5,548.6,774.9,547.8,774.9z M547.8,763.8c-0.8,0-1.4,0.6-1.4,1.4
				c0,3.8-3.1,6.9-6.9,6.9c-3.8,0-6.9-3.1-6.9-6.9c0-0.8-0.6-1.4-1.4-1.4s-1.4,0.6-1.4,1.4c0,3.8-3.1,6.9-6.9,6.9
				c-3.8,0-6.9-3.1-6.9-6.9c0-0.8-0.6-1.4-1.4-1.4c-0.8,0-1.4,0.6-1.4,1.4c0,3.8-3.1,6.9-6.9,6.9c-3.8,0-6.9-3.1-6.9-6.9
				c0-0.8-0.6-1.4-1.4-1.4s-1.4,0.6-1.4,1.4c0,5.4,4.4,9.7,9.7,9.7c3.5,0,6.6-1.9,8.3-4.7c1.7,2.8,4.8,4.7,8.3,4.7
				c3.5,0,6.6-1.9,8.3-4.7c1.7,2.8,4.8,4.7,8.3,4.7c3.5,0,6.6-1.9,8.3-4.7c1.7,2.8,4.8,4.7,8.3,4.7c5.4,0,9.7-4.4,9.7-9.7
				c0-0.8-0.6-1.4-1.4-1.4c-0.8,0-1.4,0.6-1.4,1.4c0,3.8-3.1,6.9-6.9,6.9s-6.9-3.1-6.9-6.9C549.2,764.4,548.6,763.8,547.8,763.8z
				 M532.6,737.4c0-0.8-0.6-1.4-1.4-1.4s-1.4,0.6-1.4,1.4v13.3l-3.2-3.2c-0.5-0.5-1.4-0.5-2,0c-0.5,0.5-0.5,1.4,0,2l5.6,5.6
				c0.5,0.5,1.4,0.5,2,0l5.6-5.6c0.5-0.5,0.5-1.4,0-2c-0.5-0.5-1.4-0.5-2,0l-3.2,3.2V737.4z"/>
		</g>
	</g>
	<path d="M8,705.3v-20.2c4.3,2.7,8.6,3.5,13.1,3.3v-43.1h22.3l0,39.1c4.5-0.7,9.1-0.7,13.6,0.7v20.2H8z M39.7,685.1V649h-15v3.3H33
		v3.6h-8.3v2.4h4.7v3.6h-4.7v2.4h4.3v3.6h-4.3v2.4h8.3v3.6h-8.3v2.4h4.7v3.6h-4.7v2.4h4.3v3.6h-4.3v2.1
		C29.7,687.5,34.7,686.1,39.7,685.1z"/>
	<path d="M388.6,726.9v2h-4c-2.2,0-4,1.8-4,4V785c0,2.2,1.8,4,4,4h32.1c2.2,0,4-1.8,4-4V733c0-2.2-1.8-4-4-4h-4v-2c0-1.1-0.9-2-2-2
		h-20.1C389.6,724.9,388.6,725.8,388.6,726.9z M414.7,732.9c1.1,0,2,0.9,2,2V783c0,1.1-0.9,2-2,2h-28.1c-1.1,0-2-0.9-2-2v-48.1
		c0-1.1,0.9-2,2-2H414.7z"/>
	<path d="M494.4,780v-6c0-0.6-0.4-1-1-1h-22.1c-0.6,0-1,0.4-1,1v6c0,0.6,0.4,1,1,1h22.1C494,781,494.4,780.5,494.4,780z
		 M470.3,726.9v2h-4c-2.2,0-4,1.8-4,4V785c0,2.2,1.8,4,4,4h32.1c2.2,0,4-1.8,4-4V733c0-2.2-1.8-4-4-4h-4v-2c0-1.1-0.9-2-2-2h-20.1
		C471.3,724.9,470.3,725.8,470.3,726.9z M496.4,732.9c1.1,0,2,0.9,2,2V783c0,1.1-0.9,2-2,2h-28.1c-1.1,0-2-0.9-2-2v-48.1
		c0-1.1,0.9-2,2-2H496.4z"/>
	<path d="M305.6,768v-6c0-0.6,0.4-1,1-1h22.1c0.6,0,1,0.4,1,1v6c0,0.6-0.4,1-1,1h-22.1C306,769,305.6,768.5,305.6,768z M329.7,780
		v-6c0-0.6-0.4-1-1-1h-22.1c-0.6,0-1,0.4-1,1v6c0,0.6,0.4,1,1,1h22.1C329.2,781,329.7,780.5,329.7,780z M305.6,726.9v2h-4
		c-2.2,0-4,1.8-4,4V785c0,2.2,1.8,4,4,4h32.1c2.2,0,4-1.8,4-4V733c0-2.2-1.8-4-4-4h-4v-2c0-1.1-0.9-2-2-2h-20.1
		C306.5,724.9,305.6,725.8,305.6,726.9z M331.7,732.9c1.1,0,2,0.9,2,2V783c0,1.1-0.9,2-2,2h-28.1c-1.1,0-2-0.9-2-2v-48.1
		c0-1.1,0.9-2,2-2H331.7z"/>
	<path d="M139.6,768v-6c0-0.6,0.4-1,1-1h22.1c0.6,0,1,0.4,1,1v6c0,0.6-0.4,1-1,1h-22.1C140,769,139.6,768.5,139.6,768z M163.7,780
		v-6c0-0.6-0.4-1-1-1h-22.1c-0.6,0-1,0.4-1,1v6c0,0.6,0.4,1,1,1h22.1C163.2,781,163.7,780.5,163.7,780z M163.7,755.9v-6
		c0-0.6-0.4-1-1-1h-22.1c-0.6,0-1,0.4-1,1v6c0,0.6,0.4,1,1,1h22.1C163.2,756.9,163.7,756.5,163.7,755.9z M139.6,726.9v2h-4
		c-2.2,0-4,1.8-4,4V785c0,2.2,1.8,4,4,4h32.1c2.2,0,4-1.8,4-4V733c0-2.2-1.8-4-4-4h-4v-2c0-1.1-0.9-2-2-2h-20.1
		C140.5,724.9,139.6,725.8,139.6,726.9z M165.7,732.9c1.1,0,2,0.9,2,2V783c0,1.1-0.9,2-2,2h-28.1c-1.1,0-2-0.9-2-2v-48.1
		c0-1.1,0.9-2,2-2H165.7z"/>
	<path d="M222.5,726.8v2h-4c-2.2,0-4,1.8-4,4v52.3c-0.1,2.2,1.7,4,3.9,4h32.1c2.2,0,4-1.8,4-4v-52.1c0-2.2-1.8-4-4-4h-4v-2
		c0-1.1-0.9-2-2-2h-20.1C223.4,724.8,222.5,725.7,222.5,726.8z M248.5,732.9c1.1,0,2,0.9,2,2V783c0,1.1-0.9,2-2,2h-28.1
		c-1.1,0-2-0.9-2-2v-48.2c0-1.1,0.9-2,2-2H248.5z M245.5,773c0.6,0,1,0.4,1,1v6c0,0.6-0.4,1-1,1h-22c-0.6,0-1-0.4-1-1v-6
		c0-0.6,0.4-1,1-1H245.5z M245.5,760.9c0.6,0,1,0.4,1,1v6c0,0.6-0.4,1-1,1h-22c-0.6,0-1-0.4-1-1v-6c0-0.6,0.4-1,1-1
		C223.5,760.9,245.5,760.9,245.5,760.9z M245.5,748.9c0.6,0,1,0.4,1,1v6c0,0.6-0.4,1-1,1h-22c-0.6,0-1-0.4-1-1v-6c0-0.6,0.4-1,1-1
		H245.5z M245.5,736.9c0.6,0,1,0.4,1,1v6c0,0.6-0.4,1-1,1h-22c-0.6,0-1-0.4-1-1v-6c0-0.6,0.4-1,1-1H245.5z M223.5,760.9h22.1
		c0.6,0,1,0.4,1,1v6c0,0.6-0.4,1-1,1h-22.1c-0.6,0-1-0.4-1-1v-6C222.5,761.4,222.9,760.9,223.5,760.9z M223.5,773h22.1
		c0.6,0,1,0.4,1,1v6c0,0.6-0.4,1-1,1h-22.1c-0.6,0-1-0.4-1-1v-6C222.5,773.4,222.9,773,223.5,773z M223.5,736.9h22.1
		c0.6,0,1,0.4,1,1v6c0,0.6-0.4,1-1,1h-22.1c-0.6,0-1-0.4-1-1v-6C222.5,737.3,222.9,736.9,223.5,736.9z M223.5,748.9h22.1
		c0.6,0,1,0.4,1,1v6c0,0.6-0.4,1-1,1h-22.1c-0.6,0-1-0.4-1-1v-6C222.5,749.4,222.9,748.9,223.5,748.9z"/>
	<text transform="matrix(1 0 0 1.1 97.625 743.625)" class="st6 st15">00</text>
	<text transform="matrix(1 0 0 1.1 179.2808 743.625)" class="st6 st15">01</text>
	<text transform="matrix(1 0 0 1.1 262.6174 743.625)" class="st6 st15">02</text>
	<text transform="matrix(1 0 0 1.1 345.6252 743.625)" class="st6 st15">03</text>
	<text transform="matrix(1 0 0 1.1 428.6637 743.625)" class="st6 st15">04</text>
</g>
<g id="Guides" class="st17">
</g>
</svg>
